HIERARCHY
ROOT Hips
{
  OFFSET 0.0273292 -0.436096 0.279869
  CHANNELS 6 Xposition Yposition Zposition Zrotation Xrotation Yrotation
  JOINT LHipJoint
  {
    OFFSET 0 0 0
    CHANNELS 6 Xposition Yposition Zposition Zrotation Xrotation Yrotation
    JOINT LeftUpLeg
    {
      OFFSET 1.36306 -1.79463 0
      CHANNELS 6 Xposition Yposition Zposition Zrotation Xrotation Yrotation
      JOINT LeftLeg
      {
        OFFSET 2.44807 -6.72613 0.000295034
        CHANNELS 6 Xposition Yposition Zposition Zrotation Xrotation Yrotation
        JOINT LeftFoot
        {
          OFFSET 2.5622 -7.03959 3.59965e-05
          CHANNELS 6 Xposition Yposition Zposition Zrotation Xrotation Yrotation
          JOINT LeftToeBase
          {
            OFFSET 0.15764 -0.43311 2.32255
            CHANNELS 6 Xposition Yposition Zposition Zrotation Xrotation Yrotation
            End Site
            {
              OFFSET 0 0 0
            }
          }
        }
      }
    }
  }
  JOINT RHipJoint
  {
    OFFSET 0 0 0
    CHANNELS 6 Xposition Yposition Zposition Zrotation Xrotation Yrotation
    JOINT RightUpLeg
    {
      OFFSET -1.30552 -1.79463 0
      CHANNELS 6 Xposition Yposition Zposition Zrotation Xrotation Yrotation
      JOINT RightLeg
      {
        OFFSET -2.54234 -6.98562 -0.000396375
        CHANNELS 6 Xposition Yposition Zposition Zrotation Xrotation Yrotation
        JOINT RightFoot
        {
          OFFSET -2.56826 -7.05623 -4.47982e-05
          CHANNELS 6 Xposition Yposition Zposition Zrotation Xrotation Yrotation
          JOINT RightToeBase
          {
            OFFSET -0.16473 -0.45259 2.36315
            CHANNELS 6 Xposition Yposition Zposition Zrotation Xrotation Yrotation
            End Site
            {
              OFFSET 0 0 0
            }
          }
        }
      }
    }
  }
  JOINT LowerBack
  {
    OFFSET 0 0 0
    CHANNELS 6 Xposition Yposition Zposition Zrotation Xrotation Yrotation
    JOINT Spine
    {
      OFFSET 0.0282699 2.03559 0
      CHANNELS 6 Xposition Yposition Zposition Zrotation Xrotation Yrotation
      JOINT Spine1
      {
        OFFSET 0.05672 2.04885 -0.04275
        CHANNELS 6 Xposition Yposition Zposition Zrotation Xrotation Yrotation
        JOINT Neck
        {
          OFFSET 0 0 0
          CHANNELS 6 Xposition Yposition Zposition Zrotation Xrotation Yrotation
          JOINT Neck1
          {
            OFFSET -0.05417 1.74624 0.17202
            CHANNELS 6 Xposition Yposition Zposition Zrotation Xrotation Yrotation
            JOINT Head
            {
              OFFSET 0.10407 1.76136 -0.12397
              CHANNELS 6 Xposition Yposition Zposition Zrotation Xrotation Yrotation
              End Site
              {
                OFFSET 0 0 0
              }
            }
          }
        }
        JOINT LeftShoulder
        {
          OFFSET 0 0 0
          CHANNELS 6 Xposition Yposition Zposition Zrotation Xrotation Yrotation
          JOINT LeftArm
          {
            OFFSET 3.36241 1.20089 -0.311211
            CHANNELS 6 Xposition Yposition Zposition Zrotation Xrotation Yrotation
            JOINT LeftForeArm
            {
              OFFSET 4.983 0.000197398 0.000166057
              CHANNELS 6 Xposition Yposition Zposition Zrotation Xrotation Yrotation
              JOINT LeftHand
              {
                OFFSET 3.48356 0 1.87849e-05
                CHANNELS 6 Xposition Yposition Zposition Zrotation Xrotation Yrotation
                JOINT LeftFingerBase
                {
                  OFFSET 0 0 0
                  CHANNELS 6 Xposition Yposition Zposition Zrotation Xrotation Yrotation
                  JOINT LeftHandIndex1
                  {
                    OFFSET 0.71526 0 0
                    CHANNELS 6 Xposition Yposition Zposition Zrotation Xrotation Yrotation
                    End Site
                    {
                      OFFSET 0 0 0
                    }
                  }
                }
                JOINT LThumb
                {
                  OFFSET 0 0 0
                  CHANNELS 6 Xposition Yposition Zposition Zrotation Xrotation Yrotation
                  End Site
                  {
                    OFFSET 0 0 0
                  }
                }
              }
            }
          }
        }
        JOINT RightShoulder
        {
          OFFSET 0 0 0
          CHANNELS 6 Xposition Yposition Zposition Zrotation Xrotation Yrotation
          JOINT RightArm
          {
            OFFSET -3.1366 1.37405 -0.404651
            CHANNELS 6 Xposition Yposition Zposition Zrotation Xrotation Yrotation
            JOINT RightForeArm
            {
              OFFSET -5.2419 -5.8808e-05 -0.000165864
              CHANNELS 6 Xposition Yposition Zposition Zrotation Xrotation Yrotation
              JOINT RightHand
              {
                OFFSET -3.44417 0 -2.00002e-05
                CHANNELS 6 Xposition Yposition Zposition Zrotation Xrotation Yrotation
                JOINT RightFingerBase
                {
                  OFFSET 0 0 0
                  CHANNELS 6 Xposition Yposition Zposition Zrotation Xrotation Yrotation
                  JOINT RightHandIndex1
                  {
                    OFFSET -0.62253 0 0
                    CHANNELS 6 Xposition Yposition Zposition Zrotation Xrotation Yrotation
                    End Site
                    {
                      OFFSET 0 0 0
                    }
                  }
                }
                JOINT RThumb
                {
                  OFFSET 0 0 0
                  CHANNELS 6 Xposition Yposition Zposition Zrotation Xrotation Yrotation
                  End Site
                  {
                    OFFSET 0 0 0
                  }
                }
              }
            }
          }
        }
      }
    }
  }
}
MOTION
Frames:	5
Frame Time:	0.00833333
0.0737661 1.69958 0.290405 -4.25868 11.3321 -0.513725 0 0 0 -1.13059e-15 -3.18055e-15 1.98785e-16 1.36306 -1.79463 -5.22308e-08 -21.3875 -54.9127 -20.0853 2.44805 -6.72616 -1.00433e-05 -126.909 49.8531 158.829 2.56219 -7.03959 -4.43201e-05 -2.06591 5.53781 2.21495 0.15764 -0.43311 2.32255 -3.18055e-15 7.95139e-16 -3.97569e-16 0 0 0 -1.13059e-15 -3.18055e-15 1.98785e-16 -1.30552 -1.79463 7.87806e-09 31.5557 -36.1243 9.04137 -2.54248 -6.98557 0.000492087 19.7107 54.5974 -33.7265 -2.56825 -7.05623 3.7956e-06 -4.66941 -34.7611 12.1345 -0.16473 -0.45259 2.36315 5.04416e-15 -3.97569e-16 1.59028e-15 0 0 0 -1.13059e-15 -3.18055e-15 1.98785e-16 0.0282696 2.03559 -1.28383e-06 6.37763 10.147 0.502461 0.05672 2.04885 -0.04275 -9.93923e-17 0 1.98785e-16 0 0 0 -9.93923e-17 0 1.98785e-16 -0.05417 1.74624 0.17202 0.24955 -16.6517 -0.486034 0.10407 1.76136 -0.12397 -6.21202e-16 7.95139e-16 3.97569e-16 0 0 0 -9.93923e-17 0 1.98785e-16 3.36241 1.20089 -0.311211 -72.8015 18.1084 6.76834 4.983 0.000264736 2.35894e-05 2.0561 1.23977 -81.7402 3.48356 -4.1924e-06 1.88836e-05 -5.83912e-05 1.59028e-15 -0.000323003 0 0 0 -0 -1.59028e-15 -0 0.71526 0 -4.44089e-16 -8.82781e-32 -1.59028e-15 -3.18055e-15 0 0 0 -0 -1.59028e-15 -0 0 0 0 -9.93923e-17 0 1.98785e-16 -3.1366 1.37405 -0.40465 54.6006 14.541 34.6376 -5.2419 0.000761492 -0.000231914 -2.06664 1.24139 81.9874 -3.44417 -2.12401e-06 2.06435e-05 5.89303e-05 -6.36111e-15 0.00029153 0 0 0 -3.18055e-15 -5.56597e-15 1.59028e-15 -0.62253 0 -2.22045e-16 -0 -5.56597e-15 -0 0 0 0 -3.18055e-15 -5.56597e-15 1.59028e-15 
0.0723307 1.70131 0.311561 -3.89511 11.1113 -1.11379 0 0 0 2.48481e-17 0 -0 1.36306 -1.79463 -5.22308e-08 -25.7718 -58.8523 -24.1935 2.44805 -6.72616 -1.00433e-05 -125.626 49.4313 156.575 2.56219 -7.03959 -4.43201e-05 -1.10553 4.75762 1.78887 0.15764 -0.43311 2.32255 -3.18055e-15 -1.59028e-15 -7.95139e-16 0 0 0 2.48481e-17 0 -0 -1.30552 -1.79463 7.87806e-09 30.7776 -34.6886 8.04511 -2.54248 -6.98557 0.000492087 18.5647 54.2317 -32.3377 -2.56825 -7.05623 3.7956e-06 -2.87878 -39.3998 14.5617 -0.16473 -0.45259 2.36315 3.62782e-15 -1.59028e-15 -7.95139e-16 0 0 0 2.48481e-17 0 -0 0.0282696 2.03559 -1.28383e-06 6.06611 10.6257 1.0166 0.05672 2.04885 -0.04275 -9.93923e-17 3.18055e-15 -0 0 0 0 -3.97569e-16 0 -3.97569e-16 -0.05417 1.74624 0.17202 -0.815969 -16.529 -2.71053 0.10407 1.76136 -0.12397 0 0 -0 0 0 0 -3.97569e-16 0 -3.97569e-16 3.36241 1.20089 -0.311211 -72.3203 17.6122 8.38265 4.983 0.000264736 2.35894e-05 2.024 1.30948 -80.6174 3.48356 -4.1924e-06 1.88836e-05 -0.794109 -0.176315 0.725238 0 0 0 -0 0 9.54166e-15 0.71526 0 -2.22045e-16 -3.18055e-15 -3.18055e-15 6.36111e-15 0 0 0 -0 0 9.54166e-15 0 0 0 -3.97569e-16 0 -3.97569e-16 -3.1366 1.37405 -0.40465 52.5402 13.6287 42.849 -5.2419 0.000761492 -0.000231914 -2.01164 1.38165 80.1222 -3.44417 -2.12401e-06 2.06435e-05 -0.389067 -0.687973 -1.01593 0 0 0 0 3.18055e-15 -0 -0.62253 0 -6.66134e-16 0 2.38542e-15 -0 0 0 0 0 3.18055e-15 -0 
0.0668027 1.71341 0.319582 -3.12863 10.6278 -1.45566 0 0 0 4.96962e-17 0 -3.97569e-16 1.36306 -1.79463 -5.22308e-08 -27.7406 -60.6476 -25.8927 2.44805 -6.72616 -1.00433e-05 -125.919 49.4646 155.626 2.56219 -7.03959 -4.43201e-05 -0.484287 2.78129 0.789496 0.15764 -0.43311 2.32255 3.18055e-15 1.59028e-15 7.95139e-16 0 0 0 4.96962e-17 0 -3.97569e-16 -1.30552 -1.79463 7.87806e-09 29.0108 -31.1447 5.70558 -2.54248 -6.98557 0.000492087 15.8041 53.1935 -29.0065 -2.56825 -7.05623 3.7956e-06 -1.55942 -41.9924 16.1743 -0.16473 -0.45259 2.36315 7.95139e-16 0 -3.97569e-16 0 0 0 4.96962e-17 0 -3.97569e-16 0.0282696 2.03559 -1.28383e-06 5.17227 10.8653 2.28416 0.05672 2.04885 -0.04275 -2.20695e-32 -3.18055e-15 -3.97569e-16 0 0 0 9.93923e-17 -3.18055e-15 -3.97569e-16 -0.05417 1.74624 0.17202 -1.49769 -16.2563 -3.49231 0.10407 1.76136 -0.12397 -4.96962e-17 -7.95139e-16 7.95139e-16 0 0 0 9.93923e-17 -3.18055e-15 -3.97569e-16 3.36241 1.20089 -0.311211 -72.438 16.5881 10.0034 4.983 0.000264736 2.35894e-05 1.95101 1.39062 -77.9288 3.48356 -4.1924e-06 1.88836e-05 -2.52203 -0.604171 2.45568 0 0 0 1.76556e-31 -3.18055e-15 3.18055e-15 0.71526 -8.88178e-16 -3.33067e-16 -3.18055e-15 3.18055e-15 6.36111e-15 0 0 0 1.76556e-31 -3.18055e-15 3.18055e-15 0 0 0 9.93923e-17 -3.18055e-15 -3.97569e-16 -3.1366 1.37405 -0.40465 51.3198 14.0246 46.8472 -5.2419 0.000761492 -0.000231914 -1.89753 1.4979 76.0013 -3.44417 -2.12401e-06 2.06435e-05 -1.43801 -2.19804 -3.37891 0 0 0 -6.36111e-15 3.18055e-15 -0 -0.62253 0 0 3.18055e-15 2.38542e-15 -1.59028e-15 0 0 0 -6.36111e-15 3.18055e-15 -0 
0.0553489 1.74624 0.323229 -1.99356 10.145 -1.6093 0 0 0 9.93923e-17 1.59028e-15 -3.97569e-16 1.36306 -1.79463 -5.22308e-08 -28.8787 -61.3363 -26.7814 2.44805 -6.72616 -1.00433e-05 -126.546 49.9618 154.928 2.56219 -7.03959 -4.43201e-05 -0.214148 0.1582 -0.370453 0.15764 -0.43311 2.32255 -3.18055e-15 -3.18055e-15 -0 0 0 0 9.93923e-17 1.59028e-15 -3.97569e-16 -1.30552 -1.79463 7.87806e-09 27.018 -26.6639 2.91034 -2.54248 -6.98557 0.000492087 12.457 51.5951 -25.0003 -2.56825 -7.05623 3.7956e-06 -0.85485 -43.1431 16.9832 -0.16473 -0.45259 2.36315 7.20594e-15 7.95139e-16 -1.19271e-15 0 0 0 9.93923e-17 1.59028e-15 -3.97569e-16 0.0282696 2.03559 -1.28383e-06 3.75356 10.9397 3.90305 0.05672 2.04885 -0.04275 -3.97569e-16 0 1.98785e-16 0 0 0 -4.96962e-16 0 -1.98785e-16 -0.05417 1.74624 0.17202 -1.96216 -15.9167 -3.86164 0.10407 1.76136 -0.12397 9.93923e-17 -7.95139e-16 -3.97569e-16 0 0 0 -4.96962e-16 0 -1.98785e-16 3.36241 1.20089 -0.311211 -72.6181 15.5503 11.7969 4.983 0.000264736 2.35894e-05 1.87866 1.34291 -74.7039 3.48356 -4.1924e-06 1.88836e-05 -4.21006 -1.13077 4.52194 0 0 0 3.53113e-31 -3.18055e-15 6.36111e-15 0.71526 0 -2.22045e-16 1.59028e-15 3.18055e-15 -0 0 0 0 3.53113e-31 -3.18055e-15 6.36111e-15 0 0 0 -4.96962e-16 0 -1.98785e-16 -3.1366 1.37405 -0.40465 50.4994 14.7644 48.849 -5.2419 0.000761492 -0.000231914 -1.81613 1.35182 71.8676 -3.44417 -2.12401e-06 2.06435e-05 -2.88721 -3.69492 -6.06219 0 0 0 3.18055e-15 -7.55382e-15 7.95139e-16 -0.62253 0 -4.44089e-16 3.18055e-15 -7.95139e-16 7.95139e-16 0 0 0 3.18055e-15 -7.55382e-15 7.95139e-16 
0.0361365 1.81018 0.331263 -0.521357 9.92571 -1.645 0 0 0 9.93923e-17 -4.77083e-15 -0 1.36306 -1.79463 -5.22308e-08 -31.5708 -61.7874 -29.2014 2.44805 -6.72616 -1.00433e-05 -126.246 50.8853 153.412 2.56219 -7.03959 -4.43201e-05 -0.218737 -2.55806 -1.28828 0.15764 -0.43311 2.32255 3.18055e-15 6.36111e-15 1.59028e-15 0 0 0 9.93923e-17 -4.77083e-15 -0 -1.30552 -1.79463 7.87806e-09 25.1519 -22.5004 0.277145 -2.54248 -6.98557 0.000492087 9.34025 49.6951 -21.4211 -2.56825 -7.05623 3.7956e-06 -0.666444 -43.4083 17.1883 -0.16473 -0.45259 2.36315 3.72721e-15 -7.95139e-16 3.97569e-16 0 0 0 9.93923e-17 -4.77083e-15 -0 0.0282696 2.03559 -1.28383e-06 1.87112 10.9287 5.47048 0.05672 2.04885 -0.04275 7.95139e-16 0 -7.95139e-16 0 0 0 3.97569e-16 0 -0 -0.05417 1.74624 0.17202 -2.36263 -15.5753 -4.84482 0.10407 1.76136 -0.12397 -8.69683e-17 0 9.93923e-17 0 0 0 3.97569e-16 0 -0 3.36241 1.20089 -0.311211 -72.3787 14.9987 13.9392 4.983 0.000264736 2.35894e-05 1.83424 1.22156 -71.9854 3.48356 -4.1924e-06 1.88836e-05 -4.9198 -1.60457 6.25469 0 0 0 0 3.18055e-15 -0 0.71526 -8.88178e-16 2.22045e-16 3.53113e-31 3.18055e-15 -6.36111e-15 0 0 0 0 3.18055e-15 -0 0 0 0 3.97569e-16 0 -0 -3.1366 1.37405 -0.40465 49.8014 14.7144 50.9473 -5.2419 0.000761492 -0.000231914 -1.79756 1.20005 69.988 -3.44417 -2.12401e-06 2.06435e-05 -4.25255 -4.36074 -8.02677 0 0 0 -6.36111e-15 -3.97569e-16 -0 -0.62253 0 -4.44089e-16 -6.36111e-15 -1.19271e-15 7.95139e-16 0 0 0 -6.36111e-15 -3.97569e-16 -0 
